HIERARCHY
ROOT pelvis
{
  OFFSET 0 100 0
  CHANNELS 6 Xposition Yposition Zposition Zrotation Xrotation Yrotation
  JOINT pelvis_right_femur
  {
    OFFSET -10.78128 -3.44521 -0.5502486
    CHANNELS 3 Zrotation Xrotation Yrotation
    JOINT right_femur_tibia
    {
      OFFSET -0.8047443 -44.0398 -0.1307829
      CHANNELS 3 Zrotation Xrotation Yrotation
      JOINT right_tibia_foot
      {
        OFFSET 3.006224 -47.83518 -5
        CHANNELS 3 Zrotation Xrotation Yrotation
        End Site
        {
          OFFSET 0 -5 15
        }
      }
    }
  }
  JOINT pelvis_left_femur
  {
    OFFSET 10.78128 -3.44521 -0.5502486
    CHANNELS 3 Zrotation Xrotation Yrotation
    JOINT left_femur_tibia
    {
      OFFSET 0.8047443 -44.0398 -0.1307829
      CHANNELS 3 Zrotation Xrotation Yrotation
      JOINT left_tibia_foot
      {
        OFFSET -4.370144 -48.10324 -4.275266
        CHANNELS 3 Zrotation Xrotation Yrotation
        End Site
        {
          OFFSET 0 -5 15
        }
      }
    }
  }
  JOINT pelvis_spine1
  {
    OFFSET 0 6.468898 -3.129235
    CHANNELS 3 Zrotation Xrotation Yrotation
    JOINT spine1
    {
      OFFSET 0 23.15396 4.99043
      CHANNELS 3 Zrotation Xrotation Yrotation
      JOINT spine2
      {
        OFFSET 0 20.79997 -5.064912
        CHANNELS 3 Zrotation Xrotation Yrotation
        JOINT neck
        {
          OFFSET 0 14.38658 9.616178
          CHANNELS 3 Zrotation Xrotation Yrotation
          End Site
          {
            OFFSET 0 20 0
          }
        }
      }
      JOINT right_manubrium
      {
        OFFSET -5.722621 16.35077 3.967754
        CHANNELS 3 Zrotation Xrotation Yrotation
        JOINT right_clavicle
        {
          OFFSET -13.16364 1.694482 -4.693211
          CHANNELS 3 Zrotation Xrotation Yrotation
          JOINT right_humerus
          {
            OFFSET -28.5034 -0.3100689 -2.792744
            CHANNELS 3 Zrotation Xrotation Yrotation
            JOINT right_radius
            {
              OFFSET -25.15693 0.02248979 -1.271978
              CHANNELS 3 Zrotation Xrotation Yrotation
              End Site
              {
                OFFSET -15 0 0
              }
            }
          }
        }
      }
      JOINT left_manubrium
      {
        OFFSET 5.722621 16.35077 3.967754
        CHANNELS 3 Zrotation Xrotation Yrotation
        JOINT left_clavicle
        {
          OFFSET 13.16364 1.694482 -4.693211
          CHANNELS 3 Zrotation Xrotation Yrotation
          JOINT left_humerus
          {
            OFFSET 29.39168 -1.063119 -2.237045
            CHANNELS 3 Zrotation Xrotation Yrotation
            JOINT left_radius
            {
              OFFSET 24.59957 -0.9528479 0.9047498
              CHANNELS 3 Zrotation Xrotation Yrotation
              End Site
              {
                OFFSET 15 -0 -0
              }
            }
          }
        }
      }
    }
  }
}
MOTION
Frames: 11
Frame Time: 0.0416666666667
-1743.007 125.762 1464.919 -4.296986 5.086557 -142.3174 2.317098 15.73489 0.516168 -0 19.40093 -0 -13.74233 -14.0567 0.3275942 2.44435 -19.4037 -5.050965 -0 9.20637 -0 0.1110924 0.7029958 15.20609 0.007626026 -2.879206 8.660448 -0.2750022 12.8681 -4.981846 -0.4739991 20.06363 4.883781 5.031702 -14.74727 2.229222 2.288399 -27.42878 11.97039 82.6107 25.8162 -8.411565 -0 0 28.49281 -20.25306 9.294134 11.06705 3.846315 -22.16967 -6.710848 -95.10439 7.78382 36.53659 0 0 -0.5274255 10.13354 11.8089 -0.06851359
-1747.943 125.7174 1460.976 -4.26818 5.110734 -142.6415 2.317098 15.73489 0.516168 -0 19.40093 -0 -13.74233 -14.0567 0.3275942 2.44435 -19.4037 -5.050965 -0 9.20637 -0 0.1110924 0.7029958 15.20609 0.007626026 -2.879206 8.660448 -0.2750022 12.8681 -4.981846 -0.4739991 20.06363 4.883781 5.031702 -14.74727 2.229222 2.288399 -27.42878 11.97039 82.6107 25.8162 -8.411565 -0 0 28.49281 -20.25306 9.294134 11.06705 3.846315 -22.16967 -6.710848 -95.10439 7.78382 36.53659 0 0 -0.5274255 10.13354 11.8089 -0.06851359
-1752.856 125.6728 1457.006 -4.239235 5.134748 -142.9657 2.317098 15.73489 0.516168 -0 19.40093 -0 -13.74233 -14.0567 0.3275942 2.44435 -19.4037 -5.050965 -0 9.20637 -0 0.1110924 0.7029958 15.20609 0.007626026 -2.879206 8.660448 -0.2750022 12.8681 -4.981846 -0.4739991 20.06363 4.883781 5.031702 -14.74727 2.229222 2.288399 -27.42878 11.97039 82.6107 25.8162 -8.411565 -0 0 28.49281 -20.25306 9.294134 11.06705 3.846315 -22.16967 -6.710848 -95.10439 7.78382 36.53659 0 0 -0.5274255 10.13354 11.8089 -0.06851359
-1757.747 125.6282 1453.008 -4.210154 5.158599 -143.2899 2.317098 15.73489 0.516168 -0 19.40093 -0 -13.74233 -14.0567 0.3275942 2.44435 -19.4037 -5.050965 -0 9.20637 -0 0.1110924 0.7029958 15.20609 0.007626026 -2.879206 8.660448 -0.2750022 12.8681 -4.981846 -0.4739991 20.06363 4.883781 5.031702 -14.74727 2.229222 2.288399 -27.42878 11.97039 82.6107 25.8162 -8.411565 -0 0 28.49281 -20.25306 9.294134 11.06705 3.846315 -22.16967 -6.710848 -95.10439 7.78382 36.53659 0 0 -0.5274255 10.13354 11.8089 -0.06851359
-1762.615 125.5836 1448.983 -4.180936 5.182286 -143.6141 2.317098 15.73489 0.516168 -0 19.40093 -0 -13.74233 -14.0567 0.3275942 2.44435 -19.4037 -5.050965 -0 9.20637 -0 0.1110924 0.7029958 15.20609 0.007626026 -2.879206 8.660448 -0.2750022 12.8681 -4.981846 -0.4739991 20.06363 4.883781 5.031702 -14.74727 2.229222 2.288399 -27.42878 11.97039 82.6107 25.8162 -8.411565 -0 0 28.49281 -20.25306 9.294134 11.06705 3.846315 -22.16967 -6.710848 -95.10439 7.78382 36.53659 0 0 -0.5274255 10.13354 11.8089 -0.06851359
-1767.461 125.5391 1444.93 -4.151583 5.205807 -143.9383 2.317098 15.73489 0.516168 -0 19.40093 -0 -13.74233 -14.0567 0.3275942 2.44435 -19.4037 -5.050965 -0 9.20637 -0 0.1110924 0.7029958 15.20609 0.007626026 -2.879206 8.660448 -0.2750022 12.8681 -4.981846 -0.4739991 20.06363 4.883781 5.031702 -14.74727 2.229222 2.288399 -27.42878 11.97039 82.6107 25.8162 -8.411565 -0 0 28.49281 -20.25306 9.294134 11.06705 3.846315 -22.16967 -6.710848 -95.10439 7.78382 36.53659 0 0 -0.5274255 10.13354 11.8089 -0.06851359
-1772.283 125.4945 1440.85 -4.122096 5.229163 -144.2626 2.317098 15.73489 0.516168 -0 19.40093 -0 -13.74233 -14.0567 0.3275942 2.44435 -19.4037 -5.050965 -0 9.20637 -0 0.1110924 0.7029958 15.20609 0.007626026 -2.879206 8.660448 -0.2750022 12.8681 -4.981846 -0.4739991 20.06363 4.883781 5.031702 -14.74727 2.229222 2.288399 -27.42878 11.97039 82.6107 25.8162 -8.411565 -0 0 28.49281 -20.25306 9.294134 11.06705 3.846315 -22.16967 -6.710848 -95.10439 7.78382 36.53659 0 0 -0.5274255 10.13354 11.8089 -0.06851359
-1777.083 125.4499 1436.742 -4.092476 5.252352 -144.5869 2.317098 15.73489 0.516168 -0 19.40093 -0 -13.74233 -14.0567 0.3275942 2.44435 -19.4037 -5.050965 -0 9.20637 -0 0.1110924 0.7029958 15.20609 0.007626026 -2.879206 8.660448 -0.2750022 12.8681 -4.981846 -0.4739991 20.06363 4.883781 5.031702 -14.74727 2.229222 2.288399 -27.42878 11.97039 82.6107 25.8162 -8.411565 -0 0 28.49281 -20.25306 9.294134 11.06705 3.846315 -22.16967 -6.710848 -95.10439 7.78382 36.53659 0 0 -0.5274255 10.13354 11.8089 -0.06851359
-1781.859 125.4053 1432.608 -4.062723 5.275374 -144.9112 2.317098 15.73489 0.516168 -0 19.40093 -0 -13.74233 -14.0567 0.3275942 2.44435 -19.4037 -5.050965 -0 9.20637 -0 0.1110924 0.7029958 15.20609 0.007626026 -2.879206 8.660448 -0.2750022 12.8681 -4.981846 -0.4739991 20.06363 4.883781 5.031702 -14.74727 2.229222 2.288399 -27.42878 11.97039 82.6107 25.8162 -8.411565 -0 0 28.49281 -20.25306 9.294134 11.06705 3.846315 -22.16967 -6.710848 -95.10439 7.78382 36.53659 0 0 -0.5274255 10.13354 11.8089 -0.06851359
-1786.612 125.3607 1428.446 -4.032838 5.298228 -145.2355 2.317098 15.73489 0.516168 -0 19.40093 -0 -13.74233 -14.0567 0.3275942 2.44435 -19.4037 -5.050965 -0 9.20637 -0 0.1110924 0.7029958 15.20609 0.007626026 -2.879206 8.660448 -0.2750022 12.8681 -4.981846 -0.4739991 20.06363 4.883781 5.031702 -14.74727 2.229222 2.288399 -27.42878 11.97039 82.6107 25.8162 -8.411565 -0 0 28.49281 -20.25306 9.294134 11.06705 3.846315 -22.16967 -6.710848 -95.10439 7.78382 36.53659 0 0 -0.5274255 10.13354 11.8089 -0.06851359
-1791.341 125.3161 1424.258 -4.002823 5.320913 -145.5599 2.317098 15.73489 0.516168 -0 19.40093 -0 -13.74233 -14.0567 0.3275942 2.44435 -19.4037 -5.050965 -0 9.20637 -0 0.1110924 0.7029958 15.20609 0.007626026 -2.879206 8.660448 -0.2750022 12.8681 -4.981846 -0.4739991 20.06363 4.883781 5.031702 -14.74727 2.229222 2.288399 -27.42878 11.97039 82.6107 25.8162 -8.411565 -0 0 28.49281 -20.25306 9.294134 11.06705 3.846315 -22.16967 -6.710848 -95.10439 7.78382 36.53659 0 0 -0.5274255 10.13354 11.8089 -0.06851359
